<svg width="80" height="17" viewBox="0 0 80 17" fill="none" xmlns="http://www.w3.org/2000/svg">
<path d="M6.434 0.789999V1.336C5.63667 1.336 5.134 1.44 4.926 1.648L8.904 12.542L12.726 1.804C12.5527 1.492 12.0153 1.336 11.114 1.336V0.789999H15.378V1.336C14.4073 1.336 13.8787 1.47467 13.792 1.752L8.696 16H7.448L2.404 1.882C2.26533 1.518 1.71067 1.336 0.74 1.336V0.789999H6.434ZM18.4803 8.2C18.4803 9.344 18.6363 10.4447 18.9483 11.502C19.2777 12.542 19.8063 13.452 20.5343 14.232C21.2797 14.9947 22.1637 15.376 23.1863 15.376C24.209 15.376 25.067 15.012 25.7603 14.284C26.471 13.556 26.965 12.7067 27.2423 11.736C27.537 10.748 27.6843 9.708 27.6843 8.616C27.6843 7.48933 27.5197 6.39733 27.1903 5.34C26.861 4.26533 26.3237 3.34667 25.5783 2.584C24.8503 1.804 23.9837 1.414 22.9783 1.414C22.1983 1.414 21.505 1.622 20.8983 2.038C20.309 2.454 19.841 3.00867 19.4943 3.702C19.165 4.378 18.9137 5.09733 18.7403 5.86C18.567 6.62267 18.4803 7.40267 18.4803 8.2ZM15.8803 8.408C15.8803 6.24133 16.5563 4.38667 17.9083 2.844C19.2603 1.30133 20.985 0.529999 23.0823 0.529999C25.1797 0.529999 26.9043 1.30133 28.2563 2.844C29.6083 4.38667 30.2843 6.24133 30.2843 8.408C30.2843 10.5747 29.5997 12.4293 28.2303 13.972C26.8783 15.4973 25.1623 16.26 23.0823 16.26C20.9677 16.26 19.2343 15.4973 17.8823 13.972C16.5477 12.4467 15.8803 10.592 15.8803 8.408ZM31.4797 0.789999H44.5317V3.312H43.9857C43.9857 2.376 43.8124 1.83 43.4657 1.674H39.2017V14.934C39.3577 15.2807 39.9037 15.454 40.8397 15.454V16H35.1717V15.454C36.1077 15.454 36.6537 15.2807 36.8097 14.934V1.674H32.5457C32.1991 1.83 32.0257 2.376 32.0257 3.312H31.4797V0.789999ZM46.094 16V15.454C47.03 15.454 47.576 15.2807 47.732 14.934V1.856C47.576 1.50933 47.03 1.336 46.094 1.336V0.789999H56.572V3.312H56.026C56.026 2.376 55.8526 1.83 55.506 1.674H50.124V7.654H53.764C54.1106 7.498 54.284 6.952 54.284 6.016H54.83V10.176H54.284C54.284 9.24 54.1106 8.694 53.764 8.538H50.124V15.116H56.052C56.4853 14.9253 56.8753 14.3793 57.222 13.478H57.742L57.118 16H46.094ZM59.2717 16V15.454C60.2077 15.454 60.7537 15.2807 60.9097 14.934V1.856C60.7537 1.50933 60.2077 1.336 59.2717 1.336V0.789999H64.9397V1.336C64.0037 1.336 63.4577 1.50933 63.3017 1.856V14.934C63.4577 15.2807 64.0037 15.454 64.9397 15.454V16H59.2717ZM66.4934 0.789999H79.5454V3.312H78.9994C78.9994 2.376 78.8261 1.83 78.4794 1.674H74.2154V14.934C74.3714 15.2807 74.9174 15.454 75.8534 15.454V16H70.1854V15.454C71.1214 15.454 71.6674 15.2807 71.8234 14.934V1.674H67.5594C67.2127 1.83 67.0394 2.376 67.0394 3.312H66.4934V0.789999Z" fill="black"/>
</svg>
